HIERARCHY
ROOT Hips
{
	OFFSET 0.000000 0.000000 0.000000 
	CHANNELS 6 Xposition Yposition Zposition Zrotation Xrotation Yrotation
	JOINT Spine
	{
		OFFSET -0.000000 8.061080 0.000000 
		CHANNELS 3 Zrotation Xrotation Yrotation
		JOINT Spine1
		{
			OFFSET -0.000000 20.532700 0.000000 
			CHANNELS 3 Zrotation Xrotation Yrotation
			JOINT Neck
			{
				OFFSET -0.000000 22.498800 0.000000 
				CHANNELS 3 Zrotation Xrotation Yrotation
				JOINT Head
				{
					OFFSET -0.000000 15.237400 1.966120 
					CHANNELS 3 Zrotation Xrotation Yrotation
					End Site
					{
						OFFSET -0.000000 19.661222 0.000000 
					}
				}
			}
			JOINT LeftShoulder
			{
				OFFSET 3.894670 16.042299 -0.398189 
				CHANNELS 3 Zrotation Xrotation Yrotation
				JOINT LeftArm
				{
					OFFSET 19.709600 0.000000 0.000000 
					CHANNELS 3 Zrotation Xrotation Yrotation
					JOINT LeftForeArm
					{
						OFFSET 25.566900 0.000000 0.000000 
						CHANNELS 3 Zrotation Xrotation Yrotation
						JOINT LeftHand
						{
							OFFSET 25.401899 0.000000 0.000000 
							CHANNELS 3 Zrotation Xrotation Yrotation
							End Site
							{
								OFFSET 14.745918 0.000000 0.000000 
							}
						}
					}
				}
			}
			JOINT RightShoulder
			{
				OFFSET -3.930780 16.042299 -0.398189 
				CHANNELS 3 Zrotation Xrotation Yrotation
				JOINT RightArm
				{
					OFFSET -19.709600 0.000000 0.000000 
					CHANNELS 3 Zrotation Xrotation Yrotation
					JOINT RightForeArm
					{
						OFFSET -25.566900 0.000000 0.000000 
						CHANNELS 3 Zrotation Xrotation Yrotation
						JOINT RightHand
						{
							OFFSET -25.401899 0.000000 0.000000 
							CHANNELS 3 Zrotation Xrotation Yrotation
							End Site
							{
								OFFSET -14.745918 0.000000 0.000000 
							}
						}
					}
				}
			}
		}
	}
	JOINT LeftUpLeg
	{
		OFFSET 9.830590 0.000000 0.000000 
		CHANNELS 3 Zrotation Xrotation Yrotation
		JOINT LeftLeg
		{
			OFFSET -0.000000 -46.474800 0.000000 
			CHANNELS 3 Zrotation Xrotation Yrotation
			JOINT LeftFoot
			{
				OFFSET -0.000000 -30.290499 0.000000 
				CHANNELS 3 Zrotation Xrotation Yrotation
				JOINT LeftToeBase
				{
					OFFSET -0.000000 -6.389880 14.745900 
					CHANNELS 3 Zrotation Xrotation Yrotation
					End Site
					{
						OFFSET -0.000000 0.000000 3.932244 
					}
				}
			}
		}
	}
	JOINT RightUpLeg
	{
		OFFSET -9.830590 0.000000 0.000000 
		CHANNELS 3 Zrotation Xrotation Yrotation
		JOINT RightLeg
		{
			OFFSET -0.000000 -46.474800 0.000000 
			CHANNELS 3 Zrotation Xrotation Yrotation
			JOINT RightFoot
			{
				OFFSET -0.000000 -30.290499 0.000000 
				CHANNELS 3 Zrotation Xrotation Yrotation
				JOINT RightToeBase
				{
					OFFSET -0.000000 -6.389880 14.745900 
					CHANNELS 3 Zrotation Xrotation Yrotation
					End Site
					{
						OFFSET -0.000000 0.000000 3.932244 
					}
				}
			}
		}
	}
}
MOTION
Frames: 6
Frame Time: 0.010000
15.794809 83.003632 36.258911 -4.625012 6.728997 37.104160 1.016779 -10.824819 -2.317317 3.516642 5.179042 -0.965476 1.057389 3.868437 3.395936 -0.448575 12.583011 3.790098 7.010458 7.767877 -6.083297 -71.354607 31.025911 -27.943754 -10.522266 -6.901623 -7.021132 9.744067 -7.054463 5.778797 -10.842532 9.990562 -9.353270 48.844501 56.919350 45.979515 4.426217 -11.452419 6.212262 8.827195 -11.485348 2.674587 6.328138 -13.443347 -7.518702 -2.150555 29.348875 -1.188165 9.359363 -8.518632 8.059838 -0.000002 -5.799999 -0.000010 -8.383776 -15.072612 -1.662058 8.983418 10.177104 -20.614767 -1.501046 -10.200720 26.008507 0.000000 0.000000 0.000000 
15.919173 83.026466 36.818913 -4.610958 6.676739 37.322777 1.066946 -10.825510 -2.081386 3.491241 5.216259 -0.888322 1.024244 3.890388 3.291166 -0.341037 12.597574 3.651265 7.046660 8.057474 -5.860397 -71.627876 30.939205 -27.733585 -10.740482 -6.710263 -6.689238 10.143386 -6.882930 5.126257 -10.851169 9.852394 -9.235645 48.280224 56.944187 46.436398 4.355763 -11.566137 6.336554 8.690909 -11.601119 2.700919 6.329057 -13.965368 -7.458946 -2.040424 29.705025 -1.172413 9.359363 -8.518632 8.059838 -0.000002 -5.799999 -0.000010 -8.263042 -14.616561 -1.871858 8.998384 10.147822 -20.429993 -1.501046 -10.200720 26.008507 0.000000 0.000000 0.000000 
16.050333 83.047813 37.375290 -4.597170 6.626546 37.536175 1.117029 -10.827958 -1.844577 3.462569 5.252515 -0.810705 0.991201 3.914518 3.187304 -0.235434 12.610433 3.513798 7.081045 8.352217 -5.634279 -71.888542 30.851433 -27.522633 -10.957658 -6.526558 -6.344423 10.552332 -6.723383 4.444217 -10.858340 9.714138 -9.118034 47.700470 56.967232 46.900223 4.281376 -11.682923 6.463150 8.560255 -11.719358 2.730396 6.319614 -14.482573 -7.401541 -1.921059 30.002819 -1.155045 9.359363 -8.518632 8.059838 -0.000002 -5.799999 -0.000010 -8.144629 -14.162230 -2.072186 9.014293 10.115417 -20.255749 -1.501046 -10.200720 26.008507 0.000000 0.000000 0.000000 
16.188547 83.067612 37.928059 -4.583650 6.578372 37.744083 1.166992 -10.832055 -1.607105 3.430652 5.287791 -0.732764 0.958384 3.940466 3.084521 -0.132063 12.622119 3.377964 7.113299 8.651567 -5.405381 -72.136169 30.762823 -27.311234 -11.172846 -6.351305 -5.986847 10.970310 -6.576887 3.734019 -10.863855 9.576002 -9.000731 47.106812 56.988220 47.369583 4.203129 -11.802486 6.591639 8.435488 -11.839764 2.763117 6.299992 -14.992953 -7.347106 -1.793070 30.240217 -1.136004 9.359363 -8.518632 8.059838 -0.000002 -5.799999 -0.000010 -8.028624 -13.709848 -2.263283 9.030934 10.080467 -20.091440 -1.501046 -10.200720 26.008507 0.000000 0.000000 0.000000 
16.334074 83.085785 38.477276 -4.570381 6.532138 37.946278 1.216722 -10.837799 -1.369502 3.395663 5.322147 -0.654464 0.925683 3.968312 2.983068 -0.031073 12.632510 3.244091 7.143472 8.955029 -5.173991 -72.370766 30.673313 -27.099535 -11.385497 -6.185013 -5.617299 11.396856 -6.444263 2.997311 -10.868016 9.438348 -8.883857 46.501179 57.006706 47.843105 4.121232 -11.924520 6.721530 8.316793 -11.961975 2.799139 6.270550 -15.494596 -7.296213 -1.657551 30.415756 -1.115286 9.359363 -8.518632 8.059838 -0.000002 -5.799999 -0.000010 -7.915221 -13.259643 -2.445290 9.048442 10.043606 -19.936659 -1.501046 -10.200720 26.008507 0.000000 0.000000 0.000000 
16.487165 83.102287 39.022987 -4.557384 6.487810 38.142544 1.266131 -10.845116 -1.131991 3.357743 5.355580 -0.576007 0.893000 3.997799 2.883178 0.067519 12.641784 3.112372 7.171385 9.261982 -4.940468 -72.592209 30.583277 -26.887920 -11.594596 -6.028437 -5.236029 11.831225 -6.326573 2.235621 -10.870783 9.301323 -8.767697 45.885326 57.022507 48.319347 4.035811 -12.048697 6.852438 8.204404 -12.085678 2.838414 6.231562 -15.985658 -7.249442 -1.515251 30.528233 -1.092783 9.359363 -8.518632 8.059838 -0.000002 -5.799999 -0.000010 -7.804357 -12.811928 -2.618934 9.066098 10.005709 -19.790588 -1.501046 -10.200720 26.008507 0.000000 0.000000 0.000000 
